<svg width="28" height="25" viewBox="0 0 28 25" fill="none" xmlns="http://www.w3.org/2000/svg"><path d="M8.63011 11.8434L8.80689 11.6667L8.63011 11.4899L5.43022 8.29H18.4133C20.2035 8.29 21.9204 9.00116 23.1863 10.267C24.4522 11.5329 25.1633 13.2498 25.1633 15.04C25.1633 16.8302 24.4522 18.5471 23.1863 19.813C21.9204 21.0788 20.2035 21.79 18.4133 21.79H14.4133H14.1633V22.04V24.04V24.29H14.4133H18.4133C20.8666 24.29 23.2194 23.3154 24.9541 21.5807C26.6888 19.846 27.6633 17.4933 27.6633 15.04C27.6633 12.5867 26.6888 10.234 24.9541 8.49926C23.2194 6.76455 20.8666 5.79 18.4133 5.79H5.43081L8.63013 2.59009L8.80687 2.41332L8.63011 2.23656L7.21678 0.823223L7.04 0.646447L6.86322 0.823223L0.823223 6.86322L0.646447 7.04L0.823223 7.21678L6.86322 13.2568L7.04 13.4336L7.21678 13.2568L8.63011 11.8434Z" fill="white" stroke="white" stroke-width="0.5"/></svg>
