<svg width="21" height="21" viewBox="0 0 21 21" fill="none" xmlns="http://www.w3.org/2000/svg"><path d="M12.1809 10.3734L20.047 2.50724C20.2814 2.27282 20.4131 1.95488 20.4131 1.62336C20.4131 1.29183 20.2814 0.973891 20.047 0.73947C19.8125 0.505049 19.4946 0.373352 19.1631 0.373352C18.8316 0.373352 18.5136 0.505049 18.2792 0.73947L10.4131 8.60558L2.54698 0.73947C2.31255 0.505049 1.99461 0.373352 1.66309 0.373352C1.33157 0.373352 1.01362 0.505049 0.779204 0.73947C0.544782 0.973891 0.413086 1.29183 0.413086 1.62336C0.413086 1.95488 0.544782 2.27282 0.779204 2.50724L8.64531 10.3734L0.779204 18.2395C0.544782 18.4739 0.413086 18.7918 0.413086 19.1233C0.413086 19.4549 0.544782 19.7728 0.779204 20.0072C1.01362 20.2417 1.33157 20.3734 1.66309 20.3734C1.99461 20.3734 2.31255 20.2417 2.54698 20.0072L10.4131 12.1411L18.2792 20.0072C18.5136 20.2417 18.8316 20.3734 19.1631 20.3734C19.4946 20.3734 19.8125 20.2417 20.047 20.0072C20.2814 19.7728 20.4131 19.4549 20.4131 19.1233C20.4131 18.7918 20.2814 18.4739 20.047 18.2395L12.1809 10.3734Z" fill="white"/></svg>
