<svg width="26" height="31" viewBox="0 0 26 31" fill="none" xmlns="http://www.w3.org/2000/svg"><path d="M2.78409 14.0909L5.39773 18.5511L8.01136 14.0909H9.94318L6.42045 19.5455L9.94318 25H8.01136L5.39773 20.767L2.78409 25H0.852273L4.31818 19.5455L0.852273 14.0909H2.78409Z" fill="white"/><path d="M11.9574 25V23.3381L18.1989 16.5057C18.9313 15.7055 19.5346 15.0099 20.0085 14.419C20.4825 13.822 20.8333 13.2618 21.0611 12.7386C21.295 12.2093 21.4119 11.6553 21.4119 11.0767C21.4119 10.4119 21.2519 9.83641 20.9318 9.35014C20.6179 8.86387 20.187 8.4884 19.6392 8.22372C19.0914 7.95904 18.4759 7.8267 17.7926 7.8267C17.0663 7.8267 16.4323 7.97751 15.8906 8.27912C15.3551 8.57457 14.9396 8.99006 14.6442 9.52557C14.3549 10.0611 14.2102 10.6889 14.2102 11.4091H12.0312C12.0312 10.3011 12.2867 9.3286 12.7976 8.49148C13.3085 7.65436 14.004 7.00189 14.8842 6.53409C15.7706 6.06629 16.7647 5.83239 17.8665 5.83239C18.9744 5.83239 19.9562 6.06629 20.8118 6.53409C21.6674 7.00189 22.3383 7.63281 22.8246 8.42685C23.3108 9.22088 23.554 10.1042 23.554 11.0767C23.554 11.7723 23.4278 12.4524 23.1754 13.1172C22.9292 13.7758 22.4983 14.5114 21.8828 15.3239C21.2734 16.1302 20.4271 17.1151 19.3438 18.2784L15.0966 22.821V22.9688H23.8864V25H11.9574Z" fill="white"/></svg>
