<svg width="48" height="11" viewBox="0 0 48 11" fill="none" xmlns="http://www.w3.org/2000/svg"><path d="M7.12988 4.78906V6.24658H1.46826V4.78906H7.12988ZM1.92236 0.335938V11H0.0839844V0.335938H1.92236ZM8.54346 0.335938V11H6.7124V0.335938H8.54346ZM12.5498 8.00439L17.2812 0.335938H19.1196V11H17.2812V3.32422L12.5498 11H10.7188V0.335938H12.5498V8.00439ZM21.0972 0.335938H22.9355V3.63916C22.9355 4.14209 23.0112 4.5376 23.1626 4.82568C23.314 5.10889 23.5435 5.30908 23.8511 5.42627C24.1636 5.54346 24.5518 5.60205 25.0156 5.60205C25.2402 5.60205 25.4771 5.59229 25.7261 5.57275C25.9751 5.55322 26.2241 5.52637 26.4731 5.49219C26.7271 5.45312 26.9712 5.40918 27.2056 5.36035C27.4399 5.30664 27.6548 5.24805 27.8501 5.18457V6.64209C27.6597 6.70068 27.4497 6.75684 27.2202 6.81055C26.9956 6.86426 26.7612 6.91064 26.5171 6.94971C26.2729 6.98389 26.0239 7.01074 25.77 7.03027C25.5161 7.0498 25.2646 7.05957 25.0156 7.05957C24.21 7.05957 23.5142 6.94482 22.9282 6.71533C22.3423 6.48096 21.8906 6.1123 21.5732 5.60938C21.2559 5.10645 21.0972 4.44971 21.0972 3.63916V0.335938ZM27.4326 0.335938H29.271V11H27.4326V0.335938ZM32.7207 4.43018H35.4014C36.2119 4.43018 36.9053 4.56689 37.4814 4.84033C38.0576 5.10889 38.4971 5.4873 38.7998 5.97559C39.1025 6.46387 39.2539 7.03271 39.2539 7.68213C39.2539 8.17041 39.1685 8.61719 38.9976 9.02246C38.8267 9.42773 38.5752 9.7793 38.2432 10.0771C37.9111 10.3701 37.5059 10.5972 37.0273 10.7583C36.5537 10.9194 36.0117 11 35.4014 11H31.4463V0.335938H33.292V9.54248H35.4014C35.8652 9.54248 36.2461 9.45703 36.5439 9.28613C36.8418 9.11035 37.0615 8.88086 37.2031 8.59766C37.3496 8.31445 37.4229 8.00439 37.4229 7.66748C37.4229 7.34033 37.3496 7.04248 37.2031 6.77393C37.0615 6.50537 36.8418 6.29053 36.5439 6.12939C36.2461 5.96826 35.8652 5.8877 35.4014 5.8877H32.7207V4.43018ZM46.644 7.00098H43.707L42.9819 6.70068C42.1763 6.44678 41.5586 6.06104 41.1289 5.54346C40.6992 5.02588 40.4844 4.37402 40.4844 3.58789C40.4844 2.88477 40.6406 2.2915 40.9531 1.80811C41.2656 1.32471 41.71 0.958496 42.2861 0.709473C42.8672 0.460449 43.5532 0.335938 44.3442 0.335938H47.9258V11H46.0801V1.80078H44.3442C43.6606 1.80078 43.1528 1.9668 42.8208 2.29883C42.4888 2.63086 42.3228 3.08984 42.3228 3.67578C42.3228 4.07617 42.396 4.42041 42.5425 4.7085C42.6938 4.9917 42.916 5.21143 43.209 5.36768C43.5068 5.51904 43.8755 5.59473 44.3149 5.59473H46.644V7.00098ZM44.4028 6.18066L41.9272 11H39.9497L42.4546 6.18066H44.4028Z" fill="#C1C1C1"/></svg>
