<svg width="42" height="35" viewBox="0 0 42 35" fill="none" xmlns="http://www.w3.org/2000/svg">
<path d="M23.3374 13.2784L37.8648 13.2784C39.5542 13.2784 40.9237 14.648 40.9237 16.3374V30.8648C40.9237 32.5542 39.5542 33.9237 37.8648 33.9237H23.3374C21.648 33.9237 20.2784 32.5542 20.2784 30.8648V16.3374C20.2784 14.648 21.648 13.2784 23.3374 13.2784Z" fill="#8C8C8C" stroke="black" stroke-width="0.556893"/>
<path d="M24.7258 26.9675C23.5246 26.9675 22.5508 27.9413 22.5508 29.1426C22.5508 30.3438 23.5246 31.3176 24.7258 31.3176C25.9271 31.3176 26.9009 30.3438 26.9009 29.1426C26.9009 27.9413 25.9271 26.9675 24.7258 26.9675Z" fill="white"/>
<path d="M24.7248 21.3123C23.5236 21.3123 22.5498 22.2861 22.5498 23.4873C22.5498 24.6886 23.5236 25.6624 24.7248 25.6624C25.9261 25.6624 26.8999 24.6886 26.8999 23.4873C26.8999 22.2861 25.9261 21.3123 24.7248 21.3123Z" fill="white"/>
<path d="M24.7248 15.656C23.5236 15.656 22.5498 16.6298 22.5498 17.8311C22.5498 19.0323 23.5236 20.0061 24.7248 20.0061C25.9261 20.0061 26.8999 19.0323 26.8999 17.8311C26.8999 16.6298 25.9261 15.656 24.7248 15.656Z" fill="white"/>
<path d="M36.0364 26.9673C34.8351 26.9673 33.8613 27.9411 33.8613 29.1423C33.8613 30.3436 34.8351 31.3174 36.0364 31.3174C37.2376 31.3174 38.2114 30.3436 38.2114 29.1423C38.2114 27.9411 37.2376 26.9673 36.0364 26.9673Z" fill="white"/>
<path d="M35.9885 21.6201C34.7873 21.6201 33.8135 22.5939 33.8135 23.7952C33.8135 24.9964 34.7873 25.9702 35.9885 25.9702C37.1898 25.9702 38.1636 24.9964 38.1636 23.7952C38.1636 22.5939 37.1898 21.6201 35.9885 21.6201Z" fill="white"/>
<path d="M36.0364 15.6575C34.8351 15.6575 33.8613 16.6313 33.8613 17.8325C33.8613 19.0338 34.8351 20.0076 36.0364 20.0076C37.2376 20.0076 38.2114 19.0338 38.2114 17.8325C38.2114 16.6313 37.2376 15.6575 36.0364 15.6575Z" fill="white"/>
<path d="M2.79995 13.7835L13.0724 3.51112C14.267 2.31652 16.2038 2.31652 17.3984 3.51112L27.6708 13.7835C28.8654 14.9781 28.8654 16.9149 27.6708 18.1095L17.3984 28.3819C16.2038 29.5765 14.267 29.5765 13.0724 28.382L2.79995 18.1095C1.60536 16.9149 1.60536 14.9781 2.79995 13.7835Z" fill="#8C8C8C" stroke="black" stroke-width="0.556893"/>
<path d="M13.5284 22.4063C12.679 23.2557 12.679 24.6329 13.5284 25.4823C14.3778 26.3317 15.755 26.3317 16.6044 25.4823C17.4538 24.6329 17.4538 23.2557 16.6044 22.4063C15.755 21.5569 14.3778 21.5569 13.5284 22.4063Z" fill="white"/>
<path d="M9.52939 18.4075C8.67998 19.2569 8.67999 20.6341 9.52939 21.4835C10.3788 22.3329 11.756 22.3329 12.6054 21.4835C13.4548 20.6341 13.4548 19.2569 12.6054 18.4075C11.756 17.5581 10.3788 17.5581 9.52939 18.4075Z" fill="white"/>
<path d="M5.52939 14.4087C4.67998 15.2581 4.67999 16.6353 5.52939 17.4847C6.3788 18.3341 7.75596 18.3341 8.60537 17.4847C9.45478 16.6353 9.45478 15.2581 8.60537 14.4087C7.75596 13.5593 6.3788 13.5593 5.52939 14.4087Z" fill="white"/>
<path d="M21.5255 14.4085C20.6761 15.2579 20.6761 16.6351 21.5255 17.4845C22.3749 18.3339 23.7521 18.3339 24.6015 17.4845C25.4509 16.6351 25.4509 15.2579 24.6015 14.4085C23.7521 13.5591 22.3749 13.5591 21.5255 14.4085Z" fill="white"/>
<path d="M17.712 10.6609C16.8626 11.5103 16.8626 12.8875 17.712 13.7369C18.5614 14.5863 19.9386 14.5863 20.788 13.7369C21.6374 12.8875 21.6374 11.5103 20.788 10.6609C19.9386 9.81153 18.5614 9.81153 17.712 10.6609Z" fill="white"/>
<path d="M13.5284 6.41118C12.679 7.26059 12.679 8.63775 13.5284 9.48716C14.3778 10.3366 15.755 10.3366 16.6044 9.48716C17.4538 8.63775 17.4538 7.26059 16.6044 6.41118C15.755 5.56177 14.3778 5.56177 13.5284 6.41118Z" fill="white"/>
</svg>
