<svg width="41" height="34" viewBox="0 0 41 34" fill="none" xmlns="http://www.w3.org/2000/svg"><path d="M22.9946 12.3302L37.522 12.3302C39.2114 12.3302 40.581 13.6997 40.581 15.3892V29.9165C40.581 31.6059 39.2114 32.9755 37.522 32.9755H22.9946C21.3052 32.9755 19.9357 31.606 19.9357 29.9165V15.3892C19.9357 13.6997 21.3052 12.3302 22.9946 12.3302Z" fill="#C1C1C1" stroke="black" stroke-width="0.556893"/><path d="M24.4827 26.0132C23.2814 26.0132 22.3076 26.987 22.3076 28.1882C22.3076 29.3895 23.2814 30.3633 24.4827 30.3633C25.6839 30.3633 26.6577 29.3895 26.6577 28.1882C26.6577 26.987 25.6839 26.0132 24.4827 26.0132Z" fill="white"/><path d="M24.4817 20.3579C23.2804 20.3579 22.3066 21.3317 22.3066 22.533C22.3066 23.7342 23.2804 24.708 24.4817 24.708C25.6829 24.708 26.6567 23.7342 26.6567 22.533C26.6567 21.3317 25.6829 20.3579 24.4817 20.3579Z" fill="white"/><path d="M24.4817 14.7017C23.2804 14.7017 22.3066 15.6755 22.3066 16.8767C22.3066 18.078 23.2804 19.0518 24.4817 19.0518C25.6829 19.0518 26.6567 18.078 26.6567 16.8767C26.6567 15.6755 25.6829 14.7017 24.4817 14.7017Z" fill="white"/><path d="M35.7932 26.0129C34.592 26.0129 33.6182 26.9867 33.6182 28.188C33.6182 29.3892 34.592 30.363 35.7932 30.363C36.9945 30.363 37.9683 29.3892 37.9683 28.188C37.9683 26.9867 36.9945 26.0129 35.7932 26.0129Z" fill="white"/><path d="M35.7454 20.6658C34.5441 20.6658 33.5703 21.6396 33.5703 22.8408C33.5703 24.0421 34.5441 25.0159 35.7454 25.0159C36.9466 25.0159 37.9204 24.0421 37.9204 22.8408C37.9204 21.6396 36.9466 20.6658 35.7454 20.6658Z" fill="white"/><path d="M35.7932 14.7031C34.592 14.7031 33.6182 15.6769 33.6182 16.8782C33.6182 18.0794 34.592 19.0532 35.7932 19.0532C36.9945 19.0532 37.9683 18.0794 37.9683 16.8782C37.9683 15.6769 36.9945 14.7031 35.7932 14.7031Z" fill="white"/><path d="M2.55679 12.8292L12.8292 2.55677C14.0238 1.36218 15.9606 1.36218 17.1552 2.55677L27.4276 12.8292C28.6222 14.0238 28.6222 15.9606 27.4276 17.1552L17.1552 27.4276C15.9606 28.6222 14.0238 28.6222 12.8292 27.4276L2.55679 17.1552C1.3622 15.9606 1.36219 14.0238 2.55679 12.8292Z" fill="#C1C1C1" stroke="black" stroke-width="0.556893"/><path d="M13.2853 21.452C12.4358 22.3014 12.4358 23.6785 13.2853 24.5279C14.1347 25.3773 15.5118 25.3773 16.3612 24.5279C17.2106 23.6785 17.2106 22.3014 16.3612 21.452C15.5118 20.6025 14.1347 20.6025 13.2853 21.452Z" fill="white"/><path d="M9.28623 17.4532C8.43682 18.3026 8.43682 19.6797 9.28623 20.5291C10.1356 21.3786 11.5128 21.3786 12.3622 20.5291C13.2116 19.6797 13.2116 18.3026 12.3622 17.4532C11.5128 16.6038 10.1356 16.6038 9.28623 17.4532Z" fill="white"/><path d="M5.28623 13.4544C4.43682 14.3038 4.43682 15.681 5.28623 16.5304C6.13564 17.3798 7.5128 17.3798 8.36221 16.5304C9.21162 15.681 9.21162 14.3038 8.36221 13.4544C7.5128 12.605 6.13564 12.605 5.28623 13.4544Z" fill="white"/><path d="M21.2823 13.4541C20.4329 14.3036 20.4329 15.6807 21.2823 16.5301C22.1317 17.3795 23.5089 17.3795 24.3583 16.5301C25.2077 15.6807 25.2077 14.3036 24.3583 13.4541C23.5089 12.6047 22.1317 12.6047 21.2823 13.4541Z" fill="white"/><path d="M17.4688 9.70659C16.6194 10.556 16.6194 11.9332 17.4688 12.7826C18.3183 13.632 19.6954 13.632 20.5448 12.7826C21.3942 11.9332 21.3942 10.556 20.5448 9.70659C19.6954 8.85718 18.3183 8.85718 17.4688 9.70659Z" fill="white"/><path d="M13.2853 5.45683C12.4358 6.30624 12.4358 7.6834 13.2853 8.53281C14.1347 9.38222 15.5118 9.38222 16.3612 8.53281C17.2106 7.6834 17.2106 6.30624 16.3612 5.45683C15.5118 4.60742 14.1347 4.60742 13.2853 5.45683Z" fill="white"/></svg>