<svg width="23" height="21" viewBox="0 0 23 21" fill="none" xmlns="http://www.w3.org/2000/svg"><path d="M0.00646454 0.95422C-0.050775 0.48737 0.27823 0.0630017 0.750284 0.00639326C1.22234 -0.0502151 1.65144 0.275162 1.70868 0.742011L2.22364 4.68892C4.16904 1.83131 7.45904 0.0629532 11.0065 0.0629532C15.5267 0.0629532 19.5463 2.90643 21.0196 7.12216C21.1769 7.5607 20.9338 8.04168 20.4904 8.19728C20.4046 8.22558 20.3044 8.23971 20.2043 8.23971C19.8466 8.23971 19.5176 8.01337 19.3889 7.67382C18.1588 4.13716 14.7829 1.76053 11.0066 1.76053C7.91681 1.76053 5.04163 3.37323 3.43956 5.94794L7.73085 5.46697C8.20291 5.41036 8.63201 5.74991 8.67496 6.21676C8.71787 6.68361 8.38886 7.10798 7.91681 7.15046L1.7373 7.84365C1.70868 7.84365 1.66577 7.84365 1.63715 7.84365C1.208 7.84365 0.836094 7.5324 0.793189 7.10803L0.00646454 0.95422ZM21.2628 12.314L15.0832 13.0071C14.6112 13.0638 14.2679 13.474 14.3251 13.9408C14.3823 14.4077 14.7971 14.7472 15.2692 14.6906L19.0026 14.2804C17.5436 17.3219 14.4395 19.2883 10.9922 19.2883C7.1157 19.2883 3.62542 16.7278 2.50969 13.0638C2.36664 12.6111 1.89458 12.3564 1.43686 12.4979C0.979144 12.6393 0.721664 13.1062 0.864665 13.5589C1.50834 15.6667 2.85298 17.5624 4.62672 18.8921C6.47198 20.2644 8.67487 21 10.9922 21C15.2263 21 19.017 18.5102 20.6906 14.733L21.2913 19.4439C21.3486 19.8683 21.7205 20.1795 22.1353 20.1795C22.1782 20.1795 22.2068 20.1795 22.2497 20.1795C22.7218 20.1229 23.0508 19.6985 22.9935 19.2316L22.1925 13.0779C22.1496 12.5969 21.7348 12.2715 21.2628 12.314Z" fill="white"/></svg>
